<svg xmlns="http://www.w3.org/2000/svg" viewBox="0 0 32 32"
 width="32" height="32" fill="currentColor" shape-rendering="crispEdges">
<rect x="16" y="2" width="5" height="1"/>
<rect x="15" y="3" width="7" height="1"/>
<rect x="25" y="3" width="1" height="1"/>
<rect x="14" y="4" width="9" height="1"/>
<rect x="25" y="4" width="2" height="1"/>
<rect x="13" y="5" width="11" height="1"/>
<rect x="26" y="5" width="2" height="1"/>
<rect x="12" y="6" width="13" height="1"/>
<rect x="12" y="7" width="14" height="1"/>
<rect x="12" y="8" width="15" height="1"/>
<rect x="12" y="9" width="16" height="1"/>
<rect x="13" y="10" width="16" height="1"/>
<rect x="14" y="11" width="15" height="1"/>
<rect x="15" y="12" width="14" height="1"/>
<rect x="16" y="13" width="13" height="1"/>
<rect x="13" y="14" width="1" height="1"/>
<rect x="17" y="14" width="12" height="1"/>
<rect x="12" y="15" width="3" height="1"/>
<rect x="18" y="15" width="10" height="1"/>
<rect x="11" y="16" width="5" height="1"/>
<rect x="19" y="16" width="8" height="1"/>
<rect x="10" y="17" width="7" height="1"/>
<rect x="20" y="17" width="6" height="1"/>
<rect x="9" y="18" width="7" height="1"/>
<rect x="21" y="18" width="4" height="1"/>
<rect x="8" y="19" width="7" height="1"/>
<rect x="7" y="20" width="7" height="1"/>
<rect x="6" y="21" width="7" height="1"/>
<rect x="5" y="22" width="7" height="1"/>
<rect x="4" y="23" width="7" height="1"/>
<rect x="3" y="24" width="7" height="1"/>
<rect x="2" y="25" width="7" height="1"/>
<rect x="2" y="26" width="6" height="1"/>
<rect x="2" y="27" width="5" height="1"/>
<rect x="3" y="28" width="3" height="1"/>
</svg>
