<svg xmlns="http://www.w3.org/2000/svg" viewBox="0 0 32 32"
 width="32" height="32" fill="currentColor" shape-rendering="crispEdges">
<rect x="2" y="2" width="28" height="1"/>
<rect x="2" y="3" width="28" height="1"/>
<rect x="2" y="4" width="28" height="1"/>
<rect x="2" y="5" width="28" height="1"/>
<rect x="2" y="6" width="4" height="1"/>
<rect x="26" y="6" width="4" height="1"/>
<rect x="2" y="7" width="4" height="1"/>
<rect x="26" y="7" width="4" height="1"/>
<rect x="2" y="8" width="4" height="1"/>
<rect x="26" y="8" width="4" height="1"/>
<rect x="2" y="9" width="4" height="1"/>
<rect x="26" y="9" width="4" height="1"/>
<rect x="2" y="10" width="4" height="1"/>
<rect x="12" y="10" width="1" height="1"/>
<rect x="19" y="10" width="1" height="1"/>
<rect x="26" y="10" width="4" height="1"/>
<rect x="2" y="11" width="4" height="1"/>
<rect x="11" y="11" width="3" height="1"/>
<rect x="18" y="11" width="3" height="1"/>
<rect x="26" y="11" width="4" height="1"/>
<rect x="2" y="12" width="4" height="1"/>
<rect x="10" y="12" width="5" height="1"/>
<rect x="17" y="12" width="5" height="1"/>
<rect x="26" y="12" width="4" height="1"/>
<rect x="2" y="13" width="4" height="1"/>
<rect x="11" y="13" width="10" height="1"/>
<rect x="26" y="13" width="4" height="1"/>
<rect x="2" y="14" width="4" height="1"/>
<rect x="12" y="14" width="8" height="1"/>
<rect x="26" y="14" width="4" height="1"/>
<rect x="2" y="15" width="4" height="1"/>
<rect x="13" y="15" width="6" height="1"/>
<rect x="26" y="15" width="4" height="1"/>
<rect x="2" y="16" width="4" height="1"/>
<rect x="13" y="16" width="6" height="1"/>
<rect x="26" y="16" width="4" height="1"/>
<rect x="2" y="17" width="4" height="1"/>
<rect x="12" y="17" width="8" height="1"/>
<rect x="26" y="17" width="4" height="1"/>
<rect x="2" y="18" width="4" height="1"/>
<rect x="11" y="18" width="10" height="1"/>
<rect x="26" y="18" width="4" height="1"/>
<rect x="2" y="19" width="4" height="1"/>
<rect x="10" y="19" width="5" height="1"/>
<rect x="17" y="19" width="5" height="1"/>
<rect x="26" y="19" width="4" height="1"/>
<rect x="2" y="20" width="4" height="1"/>
<rect x="11" y="20" width="3" height="1"/>
<rect x="18" y="20" width="3" height="1"/>
<rect x="26" y="20" width="4" height="1"/>
<rect x="2" y="21" width="4" height="1"/>
<rect x="12" y="21" width="1" height="1"/>
<rect x="19" y="21" width="1" height="1"/>
<rect x="26" y="21" width="4" height="1"/>
<rect x="2" y="22" width="4" height="1"/>
<rect x="26" y="22" width="4" height="1"/>
<rect x="2" y="23" width="4" height="1"/>
<rect x="26" y="23" width="4" height="1"/>
<rect x="2" y="24" width="4" height="1"/>
<rect x="26" y="24" width="4" height="1"/>
<rect x="2" y="25" width="4" height="1"/>
<rect x="26" y="25" width="4" height="1"/>
<rect x="2" y="26" width="28" height="1"/>
<rect x="2" y="27" width="28" height="1"/>
<rect x="2" y="28" width="28" height="1"/>
<rect x="2" y="29" width="28" height="1"/>
</svg>
