<svg xmlns="http://www.w3.org/2000/svg" viewBox="0 0 32 32"
 width="32" height="32" fill="currentColor" shape-rendering="crispEdges">
<rect x="14" y="2" width="4" height="1"/>
<rect x="13" y="3" width="6" height="1"/>
<rect x="12" y="4" width="8" height="1"/>
<rect x="11" y="5" width="10" height="1"/>
<rect x="10" y="6" width="12" height="1"/>
<rect x="9" y="7" width="14" height="1"/>
<rect x="8" y="8" width="16" height="1"/>
<rect x="7" y="9" width="18" height="1"/>
<rect x="6" y="10" width="20" height="1"/>
<rect x="5" y="11" width="22" height="1"/>
<rect x="4" y="12" width="24" height="1"/>
<rect x="3" y="13" width="26" height="1"/>
<rect x="2" y="14" width="28" height="1"/>
<rect x="2" y="15" width="28" height="1"/>
<rect x="2" y="16" width="28" height="1"/>
<rect x="2" y="17" width="28" height="1"/>
<rect x="4" y="18" width="24" height="1"/>
<rect x="5" y="19" width="22" height="1"/>
<rect x="5" y="20" width="22" height="1"/>
<rect x="5" y="21" width="9" height="1"/>
<rect x="18" y="21" width="9" height="1"/>
<rect x="5" y="22" width="8" height="1"/>
<rect x="19" y="22" width="8" height="1"/>
<rect x="5" y="23" width="8" height="1"/>
<rect x="19" y="23" width="8" height="1"/>
<rect x="5" y="24" width="8" height="1"/>
<rect x="19" y="24" width="8" height="1"/>
<rect x="5" y="25" width="8" height="1"/>
<rect x="19" y="25" width="8" height="1"/>
<rect x="5" y="26" width="8" height="1"/>
<rect x="19" y="26" width="8" height="1"/>
<rect x="5" y="27" width="8" height="1"/>
<rect x="19" y="27" width="8" height="1"/>
<rect x="5" y="28" width="8" height="1"/>
<rect x="19" y="28" width="8" height="1"/>
<rect x="6" y="29" width="7" height="1"/>
<rect x="19" y="29" width="7" height="1"/>
</svg>
