<svg xmlns="http://www.w3.org/2000/svg" viewBox="0 0 32 32"
 width="32" height="32" fill="currentColor" shape-rendering="crispEdges">
<rect x="12" y="3" width="8" height="1"/>
<rect x="12" y="4" width="8" height="1"/>
<rect x="12" y="5" width="8" height="1"/>
<rect x="12" y="6" width="8" height="1"/>
<rect x="12" y="7" width="8" height="1"/>
<rect x="12" y="8" width="8" height="1"/>
<rect x="12" y="9" width="8" height="1"/>
<rect x="22" y="9" width="8" height="1"/>
<rect x="12" y="10" width="8" height="1"/>
<rect x="22" y="10" width="8" height="1"/>
<rect x="12" y="11" width="8" height="1"/>
<rect x="22" y="11" width="8" height="1"/>
<rect x="12" y="12" width="8" height="1"/>
<rect x="22" y="12" width="8" height="1"/>
<rect x="12" y="13" width="8" height="1"/>
<rect x="22" y="13" width="8" height="1"/>
<rect x="12" y="14" width="8" height="1"/>
<rect x="22" y="14" width="8" height="1"/>
<rect x="2" y="15" width="8" height="1"/>
<rect x="12" y="15" width="8" height="1"/>
<rect x="22" y="15" width="8" height="1"/>
<rect x="2" y="16" width="8" height="1"/>
<rect x="12" y="16" width="8" height="1"/>
<rect x="22" y="16" width="8" height="1"/>
<rect x="2" y="17" width="8" height="1"/>
<rect x="12" y="17" width="8" height="1"/>
<rect x="22" y="17" width="8" height="1"/>
<rect x="2" y="18" width="8" height="1"/>
<rect x="12" y="18" width="8" height="1"/>
<rect x="22" y="18" width="8" height="1"/>
<rect x="2" y="19" width="8" height="1"/>
<rect x="12" y="19" width="8" height="1"/>
<rect x="22" y="19" width="8" height="1"/>
<rect x="2" y="20" width="8" height="1"/>
<rect x="12" y="20" width="8" height="1"/>
<rect x="22" y="20" width="8" height="1"/>
<rect x="2" y="21" width="8" height="1"/>
<rect x="12" y="21" width="8" height="1"/>
<rect x="22" y="21" width="8" height="1"/>
<rect x="2" y="22" width="8" height="1"/>
<rect x="12" y="22" width="8" height="1"/>
<rect x="22" y="22" width="8" height="1"/>
<rect x="2" y="23" width="8" height="1"/>
<rect x="12" y="23" width="8" height="1"/>
<rect x="22" y="23" width="8" height="1"/>
<rect x="2" y="24" width="8" height="1"/>
<rect x="12" y="24" width="8" height="1"/>
<rect x="22" y="24" width="8" height="1"/>
<rect x="2" y="25" width="8" height="1"/>
<rect x="12" y="25" width="8" height="1"/>
<rect x="22" y="25" width="8" height="1"/>
<rect x="2" y="26" width="8" height="1"/>
<rect x="12" y="26" width="8" height="1"/>
<rect x="22" y="26" width="8" height="1"/>
<rect x="2" y="27" width="8" height="1"/>
<rect x="12" y="27" width="8" height="1"/>
<rect x="22" y="27" width="8" height="1"/>
</svg>
