<svg xmlns="http://www.w3.org/2000/svg" viewBox="0 0 32 32"
 width="32" height="32" fill="currentColor" shape-rendering="crispEdges">
<rect x="3" y="2" width="25" height="1"/>
<rect x="3" y="3" width="25" height="1"/>
<rect x="3" y="4" width="25" height="1"/>
<rect x="3" y="5" width="25" height="1"/>
<rect x="2" y="6" width="27" height="1"/>
<rect x="2" y="7" width="27" height="1"/>
<rect x="2" y="8" width="27" height="1"/>
<rect x="2" y="9" width="27" height="1"/>
<rect x="2" y="10" width="27" height="1"/>
<rect x="2" y="11" width="8" height="1"/>
<rect x="11" y="11" width="9" height="1"/>
<rect x="21" y="11" width="8" height="1"/>
<rect x="2" y="12" width="8" height="1"/>
<rect x="12" y="12" width="7" height="1"/>
<rect x="21" y="12" width="8" height="1"/>
<rect x="2" y="13" width="7" height="1"/>
<rect x="12" y="13" width="7" height="1"/>
<rect x="22" y="13" width="7" height="1"/>
<rect x="3" y="14" width="5" height="1"/>
<rect x="13" y="14" width="5" height="1"/>
<rect x="23" y="14" width="5" height="1"/>
<rect x="10" y="15" width="1" height="1"/>
<rect x="20" y="15" width="1" height="1"/>
<rect x="2" y="16" width="1" height="1"/>
<rect x="8" y="16" width="5" height="1"/>
<rect x="18" y="16" width="4" height="1"/>
<rect x="28" y="16" width="1" height="1"/>
<rect x="2" y="17" width="27" height="1"/>
<rect x="2" y="18" width="27" height="1"/>
<rect x="2" y="19" width="27" height="1"/>
<rect x="2" y="20" width="27" height="1"/>
<rect x="2" y="21" width="7" height="1"/>
<rect x="22" y="21" width="7" height="1"/>
<rect x="2" y="22" width="7" height="1"/>
<rect x="22" y="22" width="7" height="1"/>
<rect x="2" y="23" width="7" height="1"/>
<rect x="22" y="23" width="7" height="1"/>
<rect x="2" y="24" width="7" height="1"/>
<rect x="22" y="24" width="7" height="1"/>
<rect x="2" y="25" width="7" height="1"/>
<rect x="22" y="25" width="7" height="1"/>
<rect x="2" y="26" width="7" height="1"/>
<rect x="22" y="26" width="7" height="1"/>
<rect x="2" y="27" width="7" height="1"/>
<rect x="22" y="27" width="7" height="1"/>
<rect x="2" y="28" width="7" height="1"/>
<rect x="22" y="28" width="7" height="1"/>
<rect x="2" y="29" width="7" height="1"/>
<rect x="22" y="29" width="7" height="1"/>
</svg>
