<svg xmlns="http://www.w3.org/2000/svg" viewBox="0 0 32 32"
 width="32" height="32" fill="currentColor" shape-rendering="crispEdges">
<rect x="5" y="3" width="6" height="1"/>
<rect x="21" y="3" width="6" height="1"/>
<rect x="5" y="4" width="7" height="1"/>
<rect x="20" y="4" width="7" height="1"/>
<rect x="5" y="5" width="8" height="1"/>
<rect x="19" y="5" width="8" height="1"/>
<rect x="5" y="6" width="9" height="1"/>
<rect x="18" y="6" width="9" height="1"/>
<rect x="5" y="7" width="10" height="1"/>
<rect x="17" y="7" width="10" height="1"/>
<rect x="5" y="8" width="10" height="1"/>
<rect x="16" y="8" width="11" height="1"/>
<rect x="5" y="9" width="9" height="1"/>
<rect x="15" y="9" width="12" height="1"/>
<rect x="7" y="10" width="6" height="1"/>
<rect x="15" y="10" width="10" height="1"/>
<rect x="8" y="11" width="4" height="1"/>
<rect x="14" y="11" width="10" height="1"/>
<rect x="9" y="12" width="2" height="1"/>
<rect x="13" y="12" width="10" height="1"/>
<rect x="12" y="13" width="10" height="1"/>
<rect x="11" y="14" width="10" height="1"/>
<rect x="10" y="15" width="10" height="1"/>
<rect x="9" y="16" width="10" height="1"/>
<rect x="21" y="16" width="2" height="1"/>
<rect x="4" y="17" width="2" height="1"/>
<rect x="9" y="17" width="8" height="1"/>
<rect x="19" y="17" width="4" height="1"/>
<rect x="26" y="17" width="2" height="1"/>
<rect x="3" y="18" width="4" height="1"/>
<rect x="9" y="18" width="7" height="1"/>
<rect x="18" y="18" width="5" height="1"/>
<rect x="25" y="18" width="4" height="1"/>
<rect x="3" y="19" width="5" height="1"/>
<rect x="10" y="19" width="5" height="1"/>
<rect x="17" y="19" width="5" height="1"/>
<rect x="24" y="19" width="5" height="1"/>
<rect x="4" y="20" width="5" height="1"/>
<rect x="11" y="20" width="3" height="1"/>
<rect x="18" y="20" width="3" height="1"/>
<rect x="23" y="20" width="5" height="1"/>
<rect x="5" y="21" width="5" height="1"/>
<rect x="12" y="21" width="1" height="1"/>
<rect x="19" y="21" width="1" height="1"/>
<rect x="22" y="21" width="5" height="1"/>
<rect x="6" y="22" width="5" height="1"/>
<rect x="21" y="22" width="5" height="1"/>
<rect x="4" y="23" width="1" height="1"/>
<rect x="7" y="23" width="5" height="1"/>
<rect x="20" y="23" width="5" height="1"/>
<rect x="27" y="23" width="1" height="1"/>
<rect x="3" y="24" width="3" height="1"/>
<rect x="8" y="24" width="5" height="1"/>
<rect x="19" y="24" width="5" height="1"/>
<rect x="26" y="24" width="3" height="1"/>
<rect x="2" y="25" width="5" height="1"/>
<rect x="9" y="25" width="4" height="1"/>
<rect x="19" y="25" width="4" height="1"/>
<rect x="25" y="25" width="5" height="1"/>
<rect x="1" y="26" width="5" height="1"/>
<rect x="10" y="26" width="2" height="1"/>
<rect x="20" y="26" width="2" height="1"/>
<rect x="26" y="26" width="5" height="1"/>
<rect x="1" y="27" width="4" height="1"/>
<rect x="27" y="27" width="4" height="1"/>
<rect x="1" y="28" width="3" height="1"/>
<rect x="28" y="28" width="3" height="1"/>
</svg>
