<svg xmlns="http://www.w3.org/2000/svg" viewBox="0 0 32 32" width="32" height="32" shape-rendering="crispEdges">
<rect x="6" y="7" width="7" height="1" fill="currentColor"/>
<rect x="21" y="7" width="3" height="1" fill="currentColor"/>
<rect x="7" y="8" width="7" height="1" fill="currentColor"/>
<rect x="20" y="8" width="4" height="1" fill="currentColor"/>
<rect x="8" y="9" width="2" height="1" fill="currentColor"/>
<rect x="12" y="9" width="2" height="1" fill="currentColor"/>
<rect x="19" y="9" width="4" height="1" fill="currentColor"/>
<rect x="9" y="10" width="2" height="1" fill="currentColor"/>
<rect x="13" y="10" width="2" height="1" fill="currentColor"/>
<rect x="19" y="10" width="3" height="1" fill="currentColor"/>
<rect x="9" y="11" width="3" height="1" fill="currentColor"/>
<rect x="14" y="11" width="2" height="1" fill="currentColor"/>
<rect x="18" y="11" width="3" height="1" fill="currentColor"/>
<rect x="10" y="12" width="3" height="1" fill="currentColor"/>
<rect x="14" y="12" width="6" height="1" fill="currentColor"/>
<rect x="11" y="13" width="2" height="1" fill="currentColor"/>
<rect x="15" y="13" width="4" height="1" fill="currentColor"/>
<rect x="12" y="14" width="2" height="1" fill="currentColor"/>
<rect x="16" y="14" width="2" height="1" fill="currentColor"/>
<rect x="12" y="15" width="3" height="1" fill="currentColor"/>
<rect x="17" y="15" width="2" height="1" fill="currentColor"/>
<rect x="13" y="16" width="3" height="1" fill="currentColor"/>
<rect x="17" y="16" width="3" height="1" fill="currentColor"/>
<rect x="13" y="17" width="3" height="1" fill="currentColor"/>
<rect x="18" y="17" width="2" height="1" fill="currentColor"/>
<rect x="12" y="18" width="5" height="1" fill="currentColor"/>
<rect x="19" y="18" width="2" height="1" fill="currentColor"/>
<rect x="11" y="19" width="3" height="1" fill="currentColor"/>
<rect x="16" y="19" width="2" height="1" fill="currentColor"/>
<rect x="20" y="19" width="2" height="1" fill="currentColor"/>
<rect x="10" y="20" width="4" height="1" fill="currentColor"/>
<rect x="16" y="20" width="3" height="1" fill="currentColor"/>
<rect x="20" y="20" width="3" height="1" fill="currentColor"/>
<rect x="9" y="21" width="4" height="1" fill="currentColor"/>
<rect x="17" y="21" width="2" height="1" fill="currentColor"/>
<rect x="21" y="21" width="2" height="1" fill="currentColor"/>
<rect x="9" y="22" width="3" height="1" fill="currentColor"/>
<rect x="18" y="22" width="2" height="1" fill="currentColor"/>
<rect x="22" y="22" width="2" height="1" fill="currentColor"/>
<rect x="8" y="23" width="3" height="1" fill="currentColor"/>
<rect x="19" y="23" width="6" height="1" fill="currentColor"/>
<rect x="7" y="24" width="3" height="1" fill="currentColor"/>
<rect x="19" y="24" width="7" height="1" fill="currentColor"/>
</svg>
